M48
; DRILL file {KiCad 9.0.2} date 2025-12-19T01:30:38+0530
; FORMAT={-:-/ absolute / metric / decimal}
; #@! TF.CreationDate,2025-12-19T01:30:38+05:30
; #@! TF.GenerationSoftware,Kicad,Pcbnew,9.0.2
; #@! TF.FileFunction,MixedPlating,1,2
FMAT,2
METRIC
; #@! TA.AperFunction,Plated,PTH,ComponentDrill
T1C0.800
; #@! TA.AperFunction,Plated,PTH,ComponentDrill
T2C1.520
%
G90
G05
T1
X130.38Y-85.38
X130.38Y-87.92
X130.38Y-90.46
X130.38Y-93.0
X131.605Y-71.56
X131.605Y-79.41
X134.105Y-71.56
X134.105Y-79.41
X138.0Y-85.38
X138.0Y-87.92
X138.0Y-90.46
X138.0Y-93.0
X138.8Y-69.66
X138.8Y-73.71
X139.14Y-79.01
X141.14Y-79.01
X141.3Y-69.66
X141.3Y-73.71
X141.5Y-88.455
X141.5Y-90.995
T2
X120.48Y-72.16
X120.48Y-81.21
X120.48Y-90.26
X125.56Y-72.16
X125.56Y-81.21
X125.56Y-90.26
M30
