%TF.GenerationSoftware,KiCad,Pcbnew,9.0.2*%
%TF.CreationDate,2025-12-19T01:31:02+05:30*%
%TF.ProjectId,assignment,61737369-676e-46d6-956e-742e6b696361,rev?*%
%TF.SameCoordinates,Original*%
%TF.FileFunction,Copper,L1,Top*%
%TF.FilePolarity,Positive*%
%FSLAX46Y46*%
G04 Gerber Fmt 4.6, Leading zero omitted, Abs format (unit mm)*
G04 Created by KiCad (PCBNEW 9.0.2) date 2025-12-19 01:31:02*
%MOMM*%
%LPD*%
G01*
G04 APERTURE LIST*
G04 Aperture macros list*
%AMRoundRect*
0 Rectangle with rounded corners*
0 $1 Rounding radius*
0 $2 $3 $4 $5 $6 $7 $8 $9 X,Y pos of 4 corners*
0 Add a 4 corners polygon primitive as box body*
4,1,4,$2,$3,$4,$5,$6,$7,$8,$9,$2,$3,0*
0 Add four circle primitives for the rounded corners*
1,1,$1+$1,$2,$3*
1,1,$1+$1,$4,$5*
1,1,$1+$1,$6,$7*
1,1,$1+$1,$8,$9*
0 Add four rect primitives between the rounded corners*
20,1,$1+$1,$2,$3,$4,$5,0*
20,1,$1+$1,$4,$5,$6,$7,0*
20,1,$1+$1,$6,$7,$8,$9,0*
20,1,$1+$1,$8,$9,$2,$3,0*%
G04 Aperture macros list end*
%TA.AperFunction,ComponentPad*%
%ADD10RoundRect,0.250000X-0.550000X-0.550000X0.550000X-0.550000X0.550000X0.550000X-0.550000X0.550000X0*%
%TD*%
%TA.AperFunction,ComponentPad*%
%ADD11C,1.600000*%
%TD*%
%TA.AperFunction,ComponentPad*%
%ADD12R,3.000000X3.000000*%
%TD*%
%TA.AperFunction,ComponentPad*%
%ADD13C,3.000000*%
%TD*%
%TA.AperFunction,Conductor*%
%ADD14C,0.200000*%
%TD*%
G04 APERTURE END LIST*
D10*
%TO.P,C3,1*%
%TO.N,Net-(U1-Q)*%
X139139775Y-79010000D03*
D11*
%TO.P,C3,2*%
%TO.N,Net-(J3-Pin_2)*%
X141139775Y-79010000D03*
%TD*%
D12*
%TO.P,J2,1,Pin_1*%
%TO.N,Net-(J2-Pin_1)*%
X120480000Y-81210000D03*
D13*
%TO.P,J2,2,Pin_2*%
%TO.N,Net-(J2-Pin_2)*%
X125560000Y-81210000D03*
%TD*%
D10*
%TO.P,U1,1,GND*%
%TO.N,Net-(J2-Pin_2)*%
X130380000Y-85380000D03*
D11*
%TO.P,U1,2,TR*%
%TO.N,Net-(U1-DIS)*%
X130380000Y-87920000D03*
%TO.P,U1,3,Q*%
%TO.N,Net-(U1-Q)*%
X130380000Y-90460000D03*
%TO.P,U1,4,R*%
%TO.N,Net-(U1-R)*%
X130380000Y-93000000D03*
%TO.P,U1,5,CV*%
%TO.N,Net-(U1-CV)*%
X138000000Y-93000000D03*
%TO.P,U1,6,THR*%
%TO.N,Net-(U1-DIS)*%
X138000000Y-90460000D03*
%TO.P,U1,7,DIS*%
X138000000Y-87920000D03*
%TO.P,U1,8,VCC*%
%TO.N,unconnected-(U1-VCC-Pad8)*%
X138000000Y-85380000D03*
%TD*%
%TO.P,C1,1*%
%TO.N,Net-(U1-R)*%
X138800000Y-69660000D03*
%TO.P,C1,2*%
%TO.N,Net-(U1-CV)*%
X141300000Y-69660000D03*
%TD*%
%TO.P,R1,1*%
%TO.N,Net-(J2-Pin_1)*%
X141500000Y-88455000D03*
%TO.P,R1,2*%
%TO.N,Net-(U1-DIS)*%
X141500000Y-90995000D03*
%TD*%
D10*
%TO.P,C4,1*%
%TO.N,Net-(J1-Pin_1)*%
X131605241Y-71560000D03*
D11*
%TO.P,C4,2*%
%TO.N,Net-(U1-CV)*%
X134105241Y-71560000D03*
%TD*%
D10*
%TO.P,C5,1*%
%TO.N,Net-(J3-Pin_1)*%
X131605241Y-79410000D03*
D11*
%TO.P,C5,2*%
%TO.N,Net-(U1-Q)*%
X134105241Y-79410000D03*
%TD*%
%TO.P,C2,1*%
%TO.N,Net-(J1-Pin_2)*%
X138800000Y-73710000D03*
%TO.P,C2,2*%
%TO.N,Net-(U1-DIS)*%
X141300000Y-73710000D03*
%TD*%
D12*
%TO.P,J1,1,Pin_1*%
%TO.N,Net-(J1-Pin_1)*%
X120480000Y-72160000D03*
D13*
%TO.P,J1,2,Pin_2*%
%TO.N,Net-(J1-Pin_2)*%
X125560000Y-72160000D03*
%TD*%
D12*
%TO.P,J3,1,Pin_1*%
%TO.N,Net-(J3-Pin_1)*%
X120480000Y-90260000D03*
D13*
%TO.P,J3,2,Pin_2*%
%TO.N,Net-(J3-Pin_2)*%
X125560000Y-90260000D03*
%TD*%
D14*
%TO.N,Net-(U1-CV)*%
X139901000Y-71059000D02*
X139901000Y-74166050D01*
X139256050Y-74811000D02*
X137356241Y-74811000D01*
X141300000Y-69660000D02*
X139901000Y-71059000D01*
X139901000Y-74166050D02*
X139256050Y-74811000D01*
X137356241Y-74811000D02*
X134105241Y-71560000D01*
%TO.N,Net-(U1-R)*%
X137690475Y-68550475D02*
X120487525Y-68550475D01*
X118278000Y-91660000D02*
X119618000Y-93000000D01*
X138800000Y-69660000D02*
X137690475Y-68550475D01*
X118278000Y-70760000D02*
X118278000Y-91660000D01*
X119618000Y-93000000D02*
X130380000Y-93000000D01*
X120487525Y-68550475D02*
X118278000Y-70760000D01*
%TO.N,Net-(J1-Pin_2)*%
X128768525Y-68951475D02*
X134041475Y-68951475D01*
X125560000Y-72160000D02*
X128768525Y-68951475D01*
X134041475Y-68951475D02*
X138800000Y-73710000D01*
%TO.N,Net-(U1-DIS)*%
X141500000Y-90995000D02*
X138535000Y-90995000D01*
X130380000Y-87920000D02*
X138000000Y-87920000D01*
X143002000Y-75412000D02*
X141300000Y-73710000D01*
X138535000Y-90995000D02*
X138000000Y-90460000D01*
X143002000Y-89077150D02*
X143002000Y-75412000D01*
X141619150Y-90460000D02*
X143002000Y-89077150D01*
%TO.N,Net-(U1-Q)*%
X138739775Y-79410000D02*
X139139775Y-79010000D01*
X134105241Y-79410000D02*
X138739775Y-79410000D01*
%TO.N,Net-(J1-Pin_1)*%
X120480000Y-72160000D02*
X122281000Y-73961000D01*
X122281000Y-73961000D02*
X129204241Y-73961000D01*
X129204241Y-73961000D02*
X131605241Y-71560000D01*
%TO.N,Net-(J3-Pin_1)*%
X118679000Y-79409000D02*
X131604241Y-79409000D01*
X120480000Y-90260000D02*
X118679000Y-88459000D01*
X131604241Y-79409000D02*
X131605241Y-79410000D01*
X118679000Y-88459000D02*
X118679000Y-79409000D01*
%TO.N,Net-(J2-Pin_2)*%
X129730000Y-85380000D02*
X130380000Y-85380000D01*
X125560000Y-81210000D02*
X129730000Y-85380000D01*
%TO.N,Net-(J2-Pin_1)*%
X125751000Y-86481000D02*
X139526000Y-86481000D01*
X120480000Y-81210000D02*
X125751000Y-86481000D01*
X139526000Y-86481000D02*
X141500000Y-88455000D01*
%TD*%
M02*
